<svg width="46" height="30" viewBox="0 0 46 30" fill="none" xmlns="http://www.w3.org/2000/svg">
<rect x="0.5" y="0.5" width="45" height="29" rx="5.69403" fill="white"/>
<rect x="0.5" y="0.5" width="45" height="29" rx="5.69403" stroke="#F5F5F5"/>
<path d="M13.6699 10.4811C14.0231 10.0298 14.2627 9.42389 14.1995 8.80469C13.6825 8.83095 13.0516 9.15313 12.6863 9.60477C12.3583 9.99153 12.068 10.6228 12.1437 11.2161C12.7241 11.2675 13.3039 10.9197 13.6699 10.4811Z" fill="#000008"/>
<path d="M14.193 11.3319C13.3501 11.2806 12.6334 11.8206 12.2309 11.8206C11.8282 11.8206 11.2118 11.3578 10.5451 11.3702C9.67739 11.3833 8.87225 11.8844 8.43192 12.6815C7.52624 14.2761 8.19291 16.6414 9.07364 17.9401C9.50134 18.5827 10.0168 19.2901 10.696 19.2647C11.3377 19.239 11.5892 18.8402 12.3693 18.8402C13.1487 18.8402 13.3753 19.2647 14.0546 19.2518C14.7591 19.239 15.1995 18.609 15.6272 17.9659C16.1178 17.2334 16.3187 16.5262 16.3313 16.4874C16.3187 16.4745 14.9729 15.9472 14.9604 14.3658C14.9477 13.0418 16.017 12.412 16.0673 12.3729C15.4635 11.4606 14.52 11.3578 14.193 11.3319Z" fill="#000008"/>
<path d="M21.5321 9.54C23.3641 9.54 24.6398 10.83 24.6398 12.7081C24.6398 14.5929 23.3378 15.8896 21.4861 15.8896H19.4578V19.1847H17.9923V9.54L21.5321 9.54ZM19.4578 14.633H21.1393C22.4153 14.633 23.1414 13.9313 23.1414 12.7148C23.1414 11.4984 22.4153 10.8033 21.1459 10.8033H19.4578V14.633Z" fill="#000008"/>
<path d="M25.0226 17.1862C25.0226 15.9563 25.9452 15.2011 27.581 15.1075L29.4653 14.994V14.4526C29.4653 13.6706 28.9483 13.2027 28.0849 13.2027C27.2668 13.2027 26.7564 13.6037 26.6322 14.232H25.2975C25.376 12.962 26.4359 12.0263 28.1371 12.0263C29.8055 12.0263 30.872 12.9287 30.872 14.3389V19.1846H29.5175V18.0284H29.485C29.0859 18.8104 28.2156 19.3049 27.3127 19.3049C25.9649 19.3049 25.0226 18.4494 25.0226 17.1862ZM29.4653 16.5513V15.9966L27.7706 16.1034C26.9265 16.1637 26.449 16.5446 26.449 17.1462C26.449 17.761 26.9462 18.162 27.7052 18.162C28.6932 18.162 29.4653 17.4669 29.4653 16.5513Z" fill="#000008"/>
<path d="M32.1507 21.7713V20.6016C32.2552 20.6283 32.4907 20.6283 32.6085 20.6283C33.2628 20.6283 33.6162 20.3476 33.832 19.6258C33.832 19.6124 33.9564 19.198 33.9564 19.1913L31.4702 12.1533H33.001L34.7416 17.8747H34.7676L36.5083 12.1533H38L35.4219 19.5522C34.8333 21.2566 34.1528 21.8047 32.7264 21.8047C32.6085 21.8047 32.2552 21.7913 32.1507 21.7713Z" fill="#000008"/>
</svg>
