<svg width="15" height="18" viewBox="0 0 15 18" fill="none" xmlns="http://www.w3.org/2000/svg">
<path d="M14.6856 13.8778C14.4163 14.5 14.0975 15.0727 13.7282 15.5992C13.2248 16.317 12.8125 16.8139 12.4949 17.0898C12.0024 17.5427 11.4748 17.7746 10.9098 17.7878C10.5042 17.7878 10.015 17.6724 9.44563 17.4382C8.87436 17.2052 8.34937 17.0898 7.86934 17.0898C7.3659 17.0898 6.82596 17.2052 6.24843 17.4382C5.67001 17.6724 5.20405 17.7944 4.84779 17.8065C4.30599 17.8295 3.76594 17.591 3.22688 17.0898C2.88282 16.7897 2.45248 16.2752 1.93694 15.5465C1.38381 14.7682 0.929063 13.8657 0.572805 12.8369C0.191265 11.7255 0 10.6494 0 9.60756C0 8.41413 0.257878 7.38482 0.774403 6.52226C1.18035 5.82941 1.72039 5.28288 2.39631 4.88166C3.07222 4.48044 3.80254 4.27599 4.58904 4.26291C5.01938 4.26291 5.58372 4.39602 6.28503 4.65764C6.98435 4.92014 7.43339 5.05325 7.63026 5.05325C7.77744 5.05325 8.27627 4.8976 9.1219 4.58729C9.92159 4.29951 10.5965 4.18036 11.1494 4.22729C12.6477 4.34821 13.7733 4.93882 14.5218 6.00287C13.1819 6.81476 12.5191 7.95191 12.5322 9.41069C12.5443 10.547 12.9565 11.4925 13.7667 12.2433C14.1338 12.5917 14.5438 12.861 15 13.0523C14.9011 13.3392 14.7966 13.614 14.6856 13.8778ZM11.2495 0.356261C11.2495 1.24686 10.9241 2.07842 10.2755 2.84809C9.49289 3.76309 8.54624 4.29182 7.51968 4.20839C7.5066 4.10154 7.49901 3.98909 7.49901 3.87092C7.49901 3.01595 7.87121 2.10095 8.53217 1.35282C8.86216 0.974026 9.28184 0.659065 9.79078 0.407814C10.2986 0.160313 10.779 0.023439 11.2308 0C11.244 0.11906 11.2495 0.238127 11.2495 0.35625V0.356261Z" fill="white"/>
</svg>
