<svg width="21" height="21" viewBox="0 0 21 21" fill="none" xmlns="http://www.w3.org/2000/svg">
<path d="M20.9878 10.4939C20.9878 4.69833 16.2895 5.53131e-05 10.4939 5.53131e-05C4.69827 5.53131e-05 0 4.69833 0 10.4939C0 15.7317 3.83746 20.0731 8.85422 20.8604V13.5273H6.18975V10.4939H8.85422V8.18201C8.85422 5.55198 10.4209 4.09923 12.8179 4.09923C13.966 4.09923 15.1669 4.30419 15.1669 4.30419V6.88667H13.8437C12.5401 6.88667 12.1336 7.69558 12.1336 8.52546V10.4939H15.044L14.5787 13.5273H12.1336V20.8604C17.1503 20.0731 20.9878 15.7317 20.9878 10.4939Z" fill="white"/>
</svg>
