<svg width="19" height="19" viewBox="0 0 19 19" fill="none" xmlns="http://www.w3.org/2000/svg">
<path fill-rule="evenodd" clip-rule="evenodd" d="M18.62 9.71564C18.62 9.04201 18.5595 8.39428 18.4473 7.77246H9.5V11.4472H14.6127C14.3925 12.6347 13.7232 13.6409 12.717 14.3145V16.6981H15.7873C17.5836 15.0443 18.62 12.6088 18.62 9.71564Z" fill="white"/>
<path fill-rule="evenodd" clip-rule="evenodd" d="M9.50029 18.9997C12.0653 18.9997 14.2157 18.149 15.7876 16.6981L12.7173 14.3145C11.8667 14.8845 10.7785 15.2213 9.50029 15.2213C7.02597 15.2213 4.93165 13.5501 4.18461 11.3047H1.01074V13.7661C2.57392 16.8708 5.78665 18.9997 9.50029 18.9997Z" fill="white"/>
<path fill-rule="evenodd" clip-rule="evenodd" d="M4.18432 11.3053C3.99432 10.7353 3.88636 10.1264 3.88636 9.50025C3.88636 8.87411 3.99432 8.26525 4.18432 7.69525V5.23389H1.01045C0.367045 6.51639 0 7.9673 0 9.50025C0 11.0332 0.367045 12.4841 1.01045 13.7666L4.18432 11.3053Z" fill="white"/>
<path fill-rule="evenodd" clip-rule="evenodd" d="M9.50029 3.77841C10.8951 3.77841 12.1473 4.25773 13.1319 5.19909L15.8567 2.47432C14.2114 0.941364 12.061 0 9.50029 0C5.78665 0 2.57392 2.12886 1.01074 5.23364L4.18461 7.695C4.93165 5.44954 7.02597 3.77841 9.50029 3.77841Z" fill="white"/>
</svg>
