<svg width="46" height="30" viewBox="0 0 46 30" fill="none" xmlns="http://www.w3.org/2000/svg">
<rect x="0.5" y="0.5" width="45" height="29" rx="5.69403" fill="white"/>
<rect x="0.5" y="0.5" width="45" height="29" rx="5.69403" stroke="#F5F5F5"/>
<path d="M22.2747 17.8742H21.1519V9.13742H24.1285C24.8829 9.13742 25.5262 9.38888 26.0525 9.8918C26.5905 10.3947 26.8595 11.0088 26.8595 11.7339C26.8595 12.4766 26.5905 13.0906 26.0525 13.5877C25.532 14.0848 24.8887 14.3304 24.1285 14.3304H22.2747V17.8742ZM22.2747 10.2134V13.2602H24.1519C24.5964 13.2602 24.9706 13.1082 25.263 12.8099C25.5613 12.5117 25.7133 12.1491 25.7133 11.7397C25.7133 11.3362 25.5613 10.9795 25.263 10.6813C24.9706 10.3713 24.6022 10.2193 24.1519 10.2193H22.2747V10.2134Z" fill="#3C4043"/>
<path d="M29.795 11.6988C30.6254 11.6988 31.2804 11.921 31.7599 12.3655C32.2394 12.8099 32.4792 13.4181 32.4792 14.19V17.8742H31.409V17.0438H31.3623C30.9003 17.728 30.2804 18.0672 29.5085 18.0672C28.8477 18.0672 28.298 17.8742 27.8535 17.4824C27.4091 17.0906 27.1869 16.6052 27.1869 16.0204C27.1869 15.4006 27.4208 14.9093 27.8886 14.5468C28.3564 14.1783 28.9822 13.997 29.7599 13.997C30.4266 13.997 30.9763 14.1199 31.4032 14.3655V14.1082C31.4032 13.7163 31.2511 13.3889 30.9412 13.114C30.6313 12.8392 30.2687 12.7047 29.8535 12.7047C29.2278 12.7047 28.7307 12.9678 28.3681 13.5L27.3798 12.8801C27.9237 12.0906 28.7307 11.6988 29.795 11.6988ZM28.3447 16.038C28.3447 16.3304 28.4675 16.576 28.719 16.769C28.9646 16.9619 29.257 17.0614 29.5903 17.0614C30.064 17.0614 30.4851 16.8859 30.8535 16.535C31.2219 16.1842 31.409 15.7748 31.409 15.3011C31.0582 15.0263 30.5728 14.8859 29.9471 14.8859C29.4909 14.8859 29.1108 14.997 28.8067 15.2134C28.4968 15.4415 28.3447 15.7163 28.3447 16.038Z" fill="#3C4043"/>
<path d="M38.5845 11.8919L34.8418 20.5H33.6839L35.0757 17.4883L32.6079 11.8919H33.8301L35.6079 16.1842H35.6313L37.3623 11.8919H38.5845Z" fill="#3C4043"/>
<path d="M17.8086 13.6228C17.8086 13.2567 17.7759 12.9064 17.7151 12.5696H13.0087V14.4994L15.7192 14.5C15.6092 15.1421 15.2554 15.6894 14.7133 16.0544V17.3064H16.3268C17.2689 16.4345 17.8086 15.1456 17.8086 13.6228Z" fill="#4285F4"/>
<path d="M14.7139 16.0544C14.2648 16.3573 13.6864 16.5345 13.0098 16.5345C11.7028 16.5345 10.5941 15.6538 10.197 14.4667H8.53267V15.7579C9.35722 17.3942 11.0519 18.517 13.0098 18.517C14.363 18.517 15.4999 18.0719 16.3273 17.3059L14.7139 16.0544Z" fill="#34A853"/>
<path d="M10.0402 13.5087C10.0402 13.1754 10.0958 12.8532 10.1969 12.5503V11.259H8.53262C8.19169 11.9356 7.99988 12.6994 7.99988 13.5087C7.99988 14.3181 8.19227 15.0818 8.53262 15.7584L10.1969 14.4672C10.0958 14.1643 10.0402 13.8421 10.0402 13.5087Z" fill="#FABB05"/>
<path d="M13.0098 10.4824C13.7484 10.4824 14.4098 10.7368 14.932 11.2339L16.3618 9.80526C15.4934 8.99649 14.3613 8.5 13.0098 8.5C11.0525 8.5 9.35717 9.62279 8.53262 11.259L10.1969 12.5503C10.594 11.3631 11.7028 10.4824 13.0098 10.4824Z" fill="#E94235"/>
</svg>
