<svg width="46" height="30" viewBox="0 0 46 30" fill="none" xmlns="http://www.w3.org/2000/svg">
<rect x="0.5" y="0.5" width="45" height="29" rx="5.69403" fill="white"/>
<rect x="0.5" y="0.5" width="45" height="29" rx="5.69403" stroke="#F5F5F5"/>
<path d="M26.1607 9.55385H19.6824V21.0535H26.1607V9.55385Z" fill="#FF5F00"/>
<path d="M20.0938 15.3037C20.0927 14.1962 20.3468 13.103 20.8367 12.1068C21.3267 11.1106 22.0396 10.2376 22.9216 9.55385C21.8294 8.70582 20.5176 8.17845 19.1363 8.032C17.755 7.88556 16.3599 8.12594 15.1104 8.7257C13.8608 9.32545 12.8073 10.2604 12.0703 11.4236C11.3332 12.5868 10.9424 13.9314 10.9424 15.3037C10.9424 16.6759 11.3332 18.0205 12.0703 19.1837C12.8073 20.347 13.8608 21.2819 15.1104 21.8816C16.3599 22.4814 17.755 22.7218 19.1363 22.5753C20.5176 22.4289 21.8294 21.9015 22.9216 21.0535C22.0396 20.3697 21.3267 19.4967 20.8367 18.5005C20.3468 17.5044 20.0927 16.4112 20.0938 15.3037Z" fill="#EB001B"/>
<path d="M34.9004 15.3037C34.9005 16.6759 34.5097 18.0205 33.7727 19.1837C33.0357 20.3469 31.9822 21.2819 30.7327 21.8816C29.4832 22.4814 28.0881 22.7218 26.7068 22.5753C25.3255 22.4289 24.0138 21.9015 22.9216 21.0535C23.8028 20.369 24.5152 19.4959 25.005 18.4999C25.4949 17.5039 25.7494 16.411 25.7494 15.3037C25.7494 14.1963 25.4949 13.1035 25.005 12.1075C24.5152 11.1115 23.8028 10.2383 22.9216 9.55385C24.0138 8.70582 25.3255 8.17845 26.7068 8.032C28.0881 7.88556 29.4832 8.12595 30.7327 8.72571C31.9822 9.32547 33.0357 10.2604 33.7727 11.4236C34.5097 12.5868 34.9005 13.9314 34.9004 15.3037Z" fill="#F79E1B"/>
<path d="M34.1941 19.8355V19.6001H34.2902V19.5521H34.0454V19.6001H34.1416V19.8355H34.1941ZM34.6693 19.8355V19.5516H34.5942L34.5079 19.7469L34.4216 19.5516H34.3465V19.8355H34.3995V19.6214L34.4805 19.806H34.5354L34.6163 19.6209V19.8355H34.6693Z" fill="#F79E1B"/>
</svg>
