<svg width="30" height="37" viewBox="0 0 30 37" fill="none" xmlns="http://www.w3.org/2000/svg">
<path d="M7.125 26.5852V34.6834C7.125 35.5491 7.94828 36.1776 8.78332 35.9496L14.0828 34.5021C14.6869 34.3371 15.3243 34.3372 15.9284 34.5024L21.2162 35.9488C22.0514 36.1772 22.875 35.5486 22.875 34.6828V26.5852M17.3167 12.0767L15.3881 8.23709C15.2294 7.92097 14.7706 7.92097 14.6119 8.23709L12.6833 12.0767L8.37107 12.6924C8.01605 12.7431 7.87429 13.1719 8.13119 13.4179L11.2516 16.4067L10.515 20.6268C10.4543 20.9743 10.8254 21.2392 11.143 21.0752L15 19.0827L18.857 21.0752C19.1746 21.2392 19.5457 20.9743 19.485 20.6268L18.7484 16.4067L21.8688 13.4179C22.1257 13.1718 21.984 12.7431 21.6289 12.6924L17.3167 12.0767ZM29 15C29 22.732 22.732 29 15 29C7.26801 29 1 22.732 1 15C1 7.26801 7.26801 1 15 1C22.732 1 29 7.26801 29 15Z" stroke="white" stroke-width="2" stroke-linecap="round" stroke-linejoin="round"/>
</svg>
