<svg width="24" height="24" viewBox="0 0 24 24" fill="none" xmlns="http://www.w3.org/2000/svg">
<path d="M19.5016 11V13.1317C19.5016 13.9129 19.8063 14.6633 20.351 15.2234L20.5755 15.4542C21.5002 16.405 20.8265 18 19.5002 18H4.503C3.17668 18 2.50297 16.405 3.42767 15.4542L3.6522 15.2233C4.19684 14.6633 4.50156 13.9129 4.50156 13.1318V9.5C4.50156 5.35787 7.85942 2 12.0016 2C12.4945 2 12.9763 2.04755 13.4426 2.13831" stroke="white" stroke-width="1.5" stroke-linecap="round" stroke-linejoin="round"/>
<path d="M14 22H10M22 4.5C22 5.88071 20.8807 7 19.5 7C18.1193 7 17 5.88071 17 4.5C17 3.11929 18.1193 2 19.5 2C20.8807 2 22 3.11929 22 4.5Z" stroke="white" stroke-width="1.5" stroke-linecap="round" stroke-linejoin="round"/>
</svg>
