<svg width="24" height="24" viewBox="0 0 24 24" fill="none" xmlns="http://www.w3.org/2000/svg">
<path d="M4 5.17071V4H6V5M15.5858 3H12.4142C12.149 3 11.8946 3.10536 11.7071 3.29289L10.2929 4.70711C10.1054 4.89464 9.851 5 9.58579 5H5C3.34315 5 2 6.34315 2 8V18C2 19.6569 3.34315 21 5 21H19C20.6569 21 22 19.6569 22 18V8C22 6.34315 20.6569 5 19 5H18.4142C18.149 5 17.8946 4.89464 17.7071 4.70711L16.2929 3.29289C16.1054 3.10536 15.851 3 15.5858 3Z" stroke="white" stroke-width="1.3" stroke-linecap="round" stroke-linejoin="round"/>
<path d="M6 9H7M18 12.5C18 14.7091 16.2091 16.5 14 16.5C11.7909 16.5 10 14.7091 10 12.5C10 10.2909 11.7909 8.5 14 8.5C16.2091 8.5 18 10.2909 18 12.5Z" stroke="white" stroke-width="1.3" stroke-linecap="round" stroke-linejoin="round"/>
</svg>
