<svg width="43" height="43" viewBox="0 0 43 43" fill="none" xmlns="http://www.w3.org/2000/svg">
<rect width="42.7273" height="42.7273" rx="7.02274" fill="#CDEBFF"/>
<path d="M29.3638 20.3636C29.3638 19.2591 30.2592 18.3636 31.3638 18.3636M13.3638 20.3636C13.3638 19.2591 12.4683 18.3636 11.3638 18.3636M15.8638 24.3636C15.8638 24.6398 15.6399 24.8636 15.3638 24.8636C15.0876 24.8636 14.8638 24.6398 14.8638 24.3636M15.8638 24.3636C15.8638 24.0875 15.6399 23.8636 15.3638 23.8636C15.0876 23.8636 14.8638 24.0875 14.8638 24.3636M15.8638 24.3636H14.8638M27.8638 24.3636C27.8638 24.6398 27.6399 24.8636 27.3638 24.8636C27.0876 24.8636 26.8638 24.6398 26.8638 24.3636M27.8638 24.3636C27.8638 24.0875 27.6399 23.8636 27.3638 23.8636C27.0876 23.8636 26.8638 24.0875 26.8638 24.3636M27.8638 24.3636H26.8638" stroke="#383838" stroke-width="2" stroke-linecap="round" stroke-linejoin="round"/>
<path d="M31.3638 28.3636H11.3638M31.3638 28.3636V24.3636C31.3638 22.9603 30.6411 21.7258 29.5477 21.0119M31.3638 28.3636V30.3636M11.3638 28.3636V24.3636C11.3638 22.9606 12.0861 21.7263 13.1792 21.0124M11.3638 28.3636V30.3636M29.3638 20.3636L27.9854 15.5395M13.3638 20.3636L14.7421 15.5395M14.7421 15.5395C15.1101 14.2516 16.2872 13.3636 17.6267 13.3636H25.1009C26.4403 13.3636 27.6175 14.2516 27.9854 15.5395M14.7421 15.5395L13.1792 21.0124M27.9854 15.5395L29.5477 21.0119M13.1792 21.0124C13.8072 20.6021 14.5576 20.3636 15.3638 20.3636H27.3638C28.1696 20.3636 28.9198 20.6019 29.5477 21.0119" stroke="#383838" stroke-width="2" stroke-linecap="round" stroke-linejoin="round"/>
</svg>
