<svg width="43" height="43" viewBox="0 0 43 43" fill="none" xmlns="http://www.w3.org/2000/svg">
<rect width="42.7273" height="42.7273" rx="7.02274" fill="#CDEBFF"/>
<path d="M25.1138 12.3636H26.3638C28.0206 12.3636 29.3638 13.7068 29.3638 15.3636V28.3636C29.3638 30.0205 28.0206 31.3636 26.3638 31.3636H16.3638C14.7069 31.3636 13.3638 30.0205 13.3638 28.3636V15.3636C13.3638 13.7068 14.7069 12.3636 16.3638 12.3636H17.6138" stroke="#383838" stroke-width="2" stroke-linecap="round" stroke-linejoin="round"/>
<path d="M21.3638 19.3686L25.3638 19.3586M21.3638 23.3686L25.3638 23.3586M21.3638 27.3686L25.3638 27.3586M17.3638 27.3636V27.3736M17.3638 23.3636V23.3736M17.3638 19.3636V19.3736M17.8638 14.8636H24.8638C25.1399 14.8636 25.3638 14.6398 25.3638 14.3636V13.3636C25.3638 12.2591 24.4683 11.3636 23.3638 11.3636H19.3638C18.2592 11.3636 17.3638 12.2591 17.3638 13.3636V14.3636C17.3638 14.6398 17.5876 14.8636 17.8638 14.8636ZM17.6138 27.3636C17.6138 27.5017 17.5018 27.6136 17.3638 27.6136C17.2257 27.6136 17.1138 27.5017 17.1138 27.3636C17.1138 27.2256 17.2257 27.1136 17.3638 27.1136C17.5018 27.1136 17.6138 27.2256 17.6138 27.3636ZM17.6138 23.3636C17.6138 23.5017 17.5018 23.6136 17.3638 23.6136C17.2257 23.6136 17.1138 23.5017 17.1138 23.3636C17.1138 23.2256 17.2257 23.1136 17.3638 23.1136C17.5018 23.1136 17.6138 23.2256 17.6138 23.3636ZM17.6138 19.3636C17.6138 19.5017 17.5018 19.6136 17.3638 19.6136C17.2257 19.6136 17.1138 19.5017 17.1138 19.3636C17.1138 19.2256 17.2257 19.1136 17.3638 19.1136C17.5018 19.1136 17.6138 19.2256 17.6138 19.3636Z" stroke="#383838" stroke-width="2" stroke-linecap="round" stroke-linejoin="round"/>
</svg>
