<svg width="43" height="43" viewBox="0 0 43 43" fill="none" xmlns="http://www.w3.org/2000/svg">
<rect width="42.7273" height="42.7273" rx="7.02274" fill="#CDEBFF"/>
<path d="M18.8638 14.3638H15.3638C14.2592 14.3638 13.3638 15.2592 13.3638 16.3638V31.3638H11.3638M23.3638 21.3638C23.3638 21.6399 23.1399 21.8638 22.8638 21.8638C22.5876 21.8638 22.3638 21.6399 22.3638 21.3638M23.3638 21.3638C23.3638 21.0876 23.1399 20.8638 22.8638 20.8638C22.5876 20.8638 22.3638 21.0876 22.3638 21.3638M23.3638 21.3638H22.3638" stroke="#383838" stroke-width="2" stroke-linecap="round" stroke-linejoin="round"/>
<path d="M31.3638 31.3639H29.3638M29.3638 31.3639V16.5579C29.3638 15.2513 28.5181 14.0949 27.2729 13.699L20.0153 11.3911C19.6928 11.2885 19.3638 11.5292 19.3638 11.8675V31.3639H29.3638Z" stroke="#383838" stroke-width="2" stroke-linecap="round" stroke-linejoin="round"/>
</svg>
