<svg width="24" height="24" viewBox="0 0 24 24" fill="none" xmlns="http://www.w3.org/2000/svg">
<path d="M3 14V18C3 19.6569 4.34315 21 6 21H18C19.6569 21 21 19.6569 21 18V14" stroke="white" stroke-width="2" stroke-linecap="round" stroke-linejoin="round"/>
<path d="M7.70711 7.29289C7.31658 6.90237 6.68342 6.90237 6.29289 7.29289C5.90237 7.68342 5.90237 8.31658 6.29289 8.70711L7 8L7.70711 7.29289ZM12 13L11.2929 13.7071C11.6834 14.0976 12.3166 14.0976 12.7071 13.7071L12 13ZM17.7071 8.70711C18.0976 8.31658 18.0976 7.68342 17.7071 7.29289C17.3166 6.90237 16.6834 6.90237 16.2929 7.29289L17 8L17.7071 8.70711ZM13 3C13 2.44772 12.5523 2 12 2C11.4477 2 11 2.44772 11 3H12H13ZM7 8L6.29289 8.70711L11.2929 13.7071L12 13L12.7071 12.2929L7.70711 7.29289L7 8ZM12 13L12.7071 13.7071L17.7071 8.70711L17 8L16.2929 7.29289L11.2929 12.2929L12 13ZM12 13H13V3H12H11V13H12Z" fill="white"/>
</svg>
