<svg width="37" height="23" viewBox="0 0 37 23" fill="none" xmlns="http://www.w3.org/2000/svg">
<path d="M37 8C37 7.44772 36.5523 7 36 7C35.4477 7 35 7.44772 35 8H36H37ZM35 15C35 15.5523 35.4477 16 36 16C36.5523 16 37 15.5523 37 15H36H35ZM24.75 8C24.75 7.44772 24.3023 7 23.75 7C23.1977 7 22.75 7.44772 22.75 8H23.75H24.75ZM22.75 15C22.75 15.5523 23.1977 16 23.75 16C24.3023 16 24.75 15.5523 24.75 15H23.75H22.75ZM16.875 8C16.875 7.44772 16.4273 7 15.875 7C15.3227 7 14.875 7.44772 14.875 8H15.875H16.875ZM14.875 15C14.875 15.5523 15.3227 16 15.875 16C16.4273 16 16.875 15.5523 16.875 15H15.875H14.875ZM9 8C9 7.44772 8.55228 7 8 7C7.44772 7 7 7.44772 7 8H8H9ZM7 15C7 15.5523 7.44772 16 8 16C8.55228 16 9 15.5523 9 15H8H7ZM6.25 1V2H25.5V1V0H6.25V1ZM30.75 6.25H29.75V16.75H30.75H31.75V6.25H30.75ZM25.5 22V21H6.25V22V23H25.5V22ZM1 16.75H2V6.25H1H0V16.75H1ZM6.25 22V21C3.90279 21 2 19.0972 2 16.75H1H0C0 20.2018 2.79822 23 6.25 23V22ZM30.75 16.75H29.75C29.75 19.0972 27.8472 21 25.5 21V22V23C28.9518 23 31.75 20.2018 31.75 16.75H30.75ZM25.5 1V2C27.8472 2 29.75 3.90279 29.75 6.25H30.75H31.75C31.75 2.79822 28.9518 0 25.5 0V1ZM6.25 1V0C2.79822 0 0 2.79822 0 6.25H1H2C2 3.90279 3.90279 2 6.25 2V1ZM36 8H35V15H36H37V8H36ZM23.75 8H22.75V15H23.75H24.75V8H23.75ZM15.875 8H14.875V15H15.875H16.875V8H15.875ZM8 8H7V15H8H9V8H8Z" fill="white"/>
</svg>
