<svg width="338" height="91" viewBox="0 0 338 91" fill="none" xmlns="http://www.w3.org/2000/svg">
<path d="M328.285 46.6639C327.596 47.701 326.907 48.3923 326.219 48.7379C325.185 49.4292 323.807 50.1205 322.429 50.1205C321.051 50.4661 319.673 50.4661 318.64 50.4661H309.683V8.29581H320.362C321.051 8.29581 322.085 8.29581 322.773 8.64147C323.463 8.64147 324.151 8.98713 324.841 9.33278C325.874 9.67844 326.562 10.7154 327.252 11.7524C327.94 12.7894 328.285 14.5177 328.285 16.5915C328.285 18.3199 327.94 19.7026 327.252 20.7395C326.907 21.4308 326.219 22.1221 325.529 22.8135C324.496 23.5048 323.118 24.1961 321.74 24.5418C320.362 24.8874 318.984 24.8874 317.951 24.8874H316.573V31.1093H317.951C318.984 31.1093 320.018 31.1093 321.395 31.4549C323.463 31.8007 325.529 32.492 326.907 34.2202C327.596 34.9115 328.285 35.9485 328.974 36.9855C329.318 38.0224 329.663 39.7508 329.663 41.479V41.8246C329.318 43.8986 328.974 45.2812 328.285 46.6639ZM337.586 41.8246C337.586 39.4051 337.241 37.3311 336.553 35.6029C335.52 33.1832 333.797 31.1093 332.419 30.0723C331.73 29.381 331.041 29.0354 330.352 28.6896C330.352 28.6896 330.008 28.6896 330.008 28.344C331.386 27.6527 332.419 26.6157 333.107 25.5787C334.485 23.8505 335.52 21.7765 335.863 20.0482C336.208 18.3199 336.553 16.9373 336.553 15.9004C336.553 15.5546 336.553 15.209 336.553 15.209C336.553 12.0981 335.863 9.33278 334.485 7.60448C332.764 4.49356 330.352 2.76526 327.94 1.38264C325.529 0.345659 323.118 0 321.051 0H301.416V58.0707H318.295C322.773 58.0707 326.219 57.3793 328.974 55.9967C331.041 54.9598 332.419 53.9227 333.797 52.5401C335.52 50.4661 336.553 48.3923 337.241 46.3183C337.931 44.2443 337.931 42.8617 337.931 41.8246C337.586 42.1704 337.586 41.8246 337.586 41.8246ZM204.963 0.345659H197.04V58.4162H204.963V0.345659ZM90.2526 52.8858C91.6304 51.1574 92.6638 49.0836 93.3528 47.0096C94.0418 44.9357 94.3862 42.8617 94.3862 40.4421C94.3862 38.0224 94.0418 35.9485 93.0084 34.2202C91.975 32.492 90.9416 31.1093 89.5636 29.7267C87.4967 27.9983 84.7409 26.6157 81.9852 25.5787C79.2294 24.5418 76.4735 23.5048 74.0623 22.4679C71.6508 21.4308 69.584 20.3939 68.2062 19.3568C67.5172 18.6655 66.8282 17.9742 66.4837 17.2829C66.1393 16.5917 65.7948 15.9004 65.7948 14.8633C65.7948 13.8264 66.1393 12.7894 66.4837 12.0981C66.8282 11.4067 67.1727 10.7154 67.8616 10.0241C69.2396 8.98713 70.9619 7.95014 73.7177 7.95014H87.4967V0.345659H73.3733C68.895 0.345659 64.7613 2.07395 62.0055 4.83922C59.2498 7.60448 57.5274 11.4067 57.5274 15.5546C57.5274 17.9742 57.8718 20.0482 58.9052 21.7765C59.9387 23.5048 60.9721 24.8874 62.3501 26.2701C64.4169 27.9983 67.1727 29.381 69.9284 30.418C72.6843 31.4549 75.4401 32.1462 77.8514 33.1833C80.2628 34.2202 82.3296 35.2571 83.7075 36.6398C84.3965 37.3311 85.0855 38.0224 85.4299 39.0595C86.1189 39.4051 86.1189 40.4421 86.1189 41.8246C86.1189 43.2073 85.7743 44.2443 85.4299 45.2812C85.0855 46.3183 84.3965 47.3552 83.7075 48.0465C83.0186 48.7379 81.9852 49.4292 80.6072 49.7748C79.5738 50.1205 77.8514 50.4661 76.4735 50.4661H61.3167V58.4162H75.7845C79.2294 58.4162 81.9852 57.7249 84.3965 56.688C86.8077 55.9967 88.8747 54.614 90.2526 52.8858ZM238.376 32.1462C240.444 31.1093 242.165 30.0723 243.543 28.6896C245.611 26.6157 246.644 24.1961 247.334 22.1221C248.022 20.0482 248.022 18.3199 248.022 17.2829C248.022 16.9373 248.022 16.9373 248.022 16.9373C248.022 13.4807 247.334 10.7154 245.956 8.29581C244.921 6.56751 243.888 5.18488 242.51 4.14791C240.444 2.76526 238.033 1.72829 235.965 1.03698C233.554 0.345659 231.488 0.345659 229.765 0.345659H212.541V58.4162H220.464V8.29581H229.077C230.11 8.29581 231.143 8.29581 232.176 8.64147C232.866 8.64147 233.899 8.98713 234.932 9.33278C236.31 9.67844 237.343 10.7154 238.376 11.7524C239.066 13.135 239.754 14.8633 239.754 17.2829C239.754 19.3568 239.411 21.0852 238.721 22.1221C238.033 23.1592 237.343 23.8505 236.655 24.1961C235.622 24.8874 234.244 25.5787 232.866 25.9243C231.488 26.2701 230.11 26.2701 229.077 26.2701C229.077 26.2701 229.077 26.2701 228.732 26.2701C228.387 26.2701 227.699 26.2701 227.699 26.2701H227.009L240.099 58.762H248.711L238.376 32.1462ZM145.024 0.345659H137.101V58.4162H145.024V0.345659ZM134.001 25.5787H112.988V33.1833H134.001V25.5787ZM264.902 8.29581H292.115V0.345659H256.634V58.4162H293.493V50.4661H264.557V8.29581H264.902ZM288.671 25.5787H267.658V33.1833H288.671V25.5787ZM189.461 50.4661H160.525V8.29581H187.738V0.345659H152.602V58.4162H189.461V50.4661ZM184.294 25.5787H163.281V33.1833H184.294V25.5787ZM110.232 0.345659H102.309V58.4162H110.232V0.345659ZM25.4912 43.553L12.0566 0.345659H0V58.4162H7.92294V12.7894L22.391 58.4162H28.5915L42.7149 12.7894V58.4162H50.6379V0.345659H38.5813L25.4912 43.553ZM92.6638 82.2668C92.6638 85.7233 90.2526 88.4886 86.8077 88.4886C83.363 88.4886 80.9518 85.7233 80.9518 82.2668C80.9518 78.8102 83.363 76.0449 86.8077 76.0449C90.2526 76.0449 92.6638 78.8102 92.6638 82.2668ZM86.8077 74.3165C82.3296 74.3165 79.2294 78.1189 78.8848 82.2668C78.8848 83.6493 79.9184 90.217 86.8077 90.5626C91.6304 90.5626 94.7307 86.4146 94.7307 82.2668C94.3862 78.1189 91.6304 74.3165 86.8077 74.3165ZM112.988 86.7604L108.854 74.3165H107.476L103.343 86.7604L98.8645 74.3165H96.7976L102.309 89.8712H103.687L107.821 77.7732L111.955 89.8712H113.677L119.188 74.3165H117.122L112.988 86.7604ZM229.765 88.4886H226.321V76.3905H229.765C233.554 76.3905 235.965 79.1558 235.965 82.2668C235.965 82.958 235.965 88.143 229.765 88.4886ZM229.765 74.6623H224.598V90.217H229.765C234.587 90.217 238.033 86.7604 238.033 82.6124C238.033 81.2298 237.343 74.6623 229.765 74.6623ZM255.256 82.2668C255.256 85.7233 252.845 88.4886 249.4 88.4886C245.956 88.4886 243.543 85.7233 243.543 82.2668C243.543 78.8102 245.956 76.0449 249.4 76.0449C252.845 76.0449 255.256 78.8102 255.256 82.2668ZM249.4 74.3165C244.921 74.3165 241.822 78.1189 241.477 82.2668C241.477 83.9951 242.51 90.217 249.4 90.5626C254.223 90.5626 257.323 86.4146 257.323 82.2668C257.323 78.1189 254.223 74.3165 249.4 74.3165ZM66.8282 88.4886H63.3835V76.3905H66.8282C70.6174 76.3905 73.0288 79.1558 73.0288 82.2668C73.3733 82.958 73.0288 88.143 66.8282 88.4886ZM66.8282 74.6623H61.6611V90.217H66.8282C71.6508 90.217 75.0957 86.7604 75.0957 82.6124C75.0957 81.2298 74.7511 74.6623 66.8282 74.6623ZM272.135 81.5755H263.524V74.6623H261.457V90.217H263.524V83.3037H272.135V90.217H274.203V74.6623H272.135V81.5755ZM282.469 84.3407L285.57 77.0818L288.671 84.3407H282.469ZM284.882 74.3165L277.647 90.217H279.715L281.436 86.069H289.704L291.427 90.217H293.493L286.26 74.6623H284.882V74.3165ZM209.441 86.7604L199.796 74.6623H198.073V90.217H199.796V77.7732L209.441 90.217H210.819V74.6623H209.097V86.7604H209.441ZM168.105 82.2668C168.105 85.7233 165.692 88.4886 162.248 88.4886C158.804 88.4886 156.392 85.7233 156.392 82.2668C156.392 78.8102 158.804 76.0449 162.248 76.0449C165.349 76.0449 168.105 78.8102 168.105 82.2668ZM162.248 74.3165C157.769 74.3165 154.67 78.1189 154.325 82.2668C154.325 83.6493 155.358 90.217 162.248 90.5626C167.07 90.5626 170.171 86.4146 170.171 82.2668C169.826 78.1189 166.727 74.3165 162.248 74.3165ZM188.083 86.7604L183.949 74.3165H182.571L178.782 86.7604L174.305 74.3165H172.237L177.749 89.8712H179.127L183.261 77.7732L187.395 89.8712H188.773L194.284 74.3165H192.217L188.083 86.7604ZM134.001 86.7604L124.356 74.6623H122.633V90.217H124.356V77.7732L134.001 90.217H135.379V74.6623H133.656V86.7604H134.001ZM139.857 76.3905H145.024V90.217H147.091V76.3905H152.258V74.6623H140.201V76.3905H139.857Z" fill="white"/>
</svg>
