<svg width="158" height="43" viewBox="0 0 158 43" fill="none" xmlns="http://www.w3.org/2000/svg">
<mask id="mask0_191_7918" style="mask-type:luminance" maskUnits="userSpaceOnUse" x="0" y="0" width="158" height="42">
<path d="M157.525 0H0V41.9141H157.525V0Z" fill="white"/>
</mask>
<g mask="url(#mask0_191_7918)">
<path d="M65.336 35.3839H67.7298V41.7988H68.6249V35.3839H71.0186V34.5362H65.336V35.3839ZM62.6236 40.1713L58.1549 34.5362H57.375V41.7988H58.243V36.0348L62.8135 41.7988H63.4916V34.5362H62.6033L62.6236 40.1713ZM87.8765 40.2663L85.9913 34.5159H85.3132L83.4077 40.2595L81.3734 34.5362H80.4037L83.0348 41.8463H83.7129L85.5912 36.2722L87.4764 41.8463H88.1545L90.7856 34.5362H89.8566L87.8765 40.2663ZM75.7112 34.4142C75.2304 34.415 74.7543 34.5107 74.3102 34.6955C73.8667 34.8804 73.4632 35.1508 73.1242 35.4915C72.7844 35.8322 72.5152 36.2363 72.3321 36.6809C72.149 37.1255 72.0555 37.6019 72.0561 38.0827C72.0561 38.7609 72.4766 41.8259 75.6976 41.9141C76.1885 41.9099 76.6734 41.8073 77.1243 41.6127C77.5746 41.4179 77.9815 41.1349 78.3212 40.7803C78.6603 40.4258 78.9254 40.0068 79.1004 39.5481C79.2753 39.0895 79.356 38.6004 79.3391 38.1099C79.3479 37.6266 79.2604 37.1465 79.0814 36.6976C78.9024 36.2487 78.6352 35.84 78.2961 35.4958C77.9571 35.1515 77.5522 34.8785 77.106 34.6927C76.6598 34.507 76.1811 34.4123 75.6976 34.4142M78.41 38.1845C78.4283 38.5538 78.3721 38.9231 78.2446 39.2703C78.1164 39.6174 77.9204 39.9353 77.6675 40.2049C77.4139 40.4745 77.1094 40.6904 76.771 40.8395C76.4327 40.9887 76.0672 41.0682 75.6976 41.0732C75.3246 41.0681 74.9564 40.9882 74.6146 40.8381C74.2729 40.688 73.965 40.471 73.7087 40.1997C73.453 39.9284 73.2537 39.6084 73.1235 39.2587C72.9933 38.9091 72.935 38.5369 72.9512 38.1641C72.9336 37.7953 72.9912 37.4267 73.1187 37.0804C73.2469 36.7341 73.4436 36.417 73.6965 36.1481C73.9494 35.8792 74.2539 35.664 74.5923 35.5152C74.93 35.3664 75.2948 35.2872 75.6637 35.2821C76.0367 35.2863 76.4049 35.3654 76.746 35.5147C77.0877 35.6641 77.3956 35.8805 77.6519 36.1513C77.9082 36.4221 78.1076 36.7416 78.2378 37.0909C78.368 37.4402 78.4263 37.812 78.41 38.1845ZM97.7701 40.1645L93.3014 34.5362H92.5419V41.7988H93.4099V36.0348L97.9736 41.7988H98.6517V34.5362H97.7837L97.7701 40.1645ZM132.944 34.4888L129.553 41.7988H130.503L131.377 39.8662H135.195L136.07 41.7988H137.046L133.656 34.4888H132.944ZM131.771 39.0253L133.296 35.6958L134.809 39.0253H131.771ZM127.024 37.7166H122.996V34.5362H122.108V41.7988H122.996V38.571H127.024V41.7988H127.912V34.5362H127.024V37.7166ZM31.2677 34.5362H28.7926V41.7988H31.2677C31.7582 41.8263 32.2492 41.7542 32.7112 41.587C33.1731 41.4197 33.5964 41.1608 33.9556 40.8256C34.3148 40.4904 34.6025 40.0861 34.8014 39.6369C35.0002 39.1877 35.106 38.7028 35.1126 38.2116C35.1126 37.5335 34.8888 34.6176 31.2677 34.5362ZM31.2677 40.9512H29.6809V35.3906H31.2677C31.641 35.3658 32.0154 35.4172 32.3681 35.5417C32.7208 35.6664 33.0444 35.8615 33.3192 36.1153C33.594 36.3692 33.8142 36.6763 33.9663 37.0181C34.1184 37.3599 34.1993 37.729 34.2039 38.1031C34.2039 38.4218 34.2039 40.8155 31.2677 40.924M116.445 34.387C115.964 34.387 115.488 34.482 115.044 34.6666C114.599 34.8511 114.195 35.1215 113.856 35.4624C113.517 35.8032 113.247 36.2077 113.065 36.6527C112.882 37.0977 112.788 37.5745 112.79 38.0556C112.79 38.7948 113.211 41.7988 116.432 41.887C116.923 41.8836 117.41 41.7818 117.861 41.5876C118.313 41.3933 118.721 41.1106 119.062 40.756C119.403 40.4014 119.669 39.9822 119.845 39.5231C120.021 39.0639 120.103 38.5742 120.087 38.0827C120.096 37.5995 120.008 37.1194 119.829 36.6704C119.65 36.2215 119.383 35.8129 119.044 35.4686C118.705 35.1243 118.3 34.8513 117.854 34.6656C117.408 34.4799 116.929 34.3851 116.445 34.387ZM119.158 38.1573C119.176 38.5267 119.12 38.896 118.992 39.2431C118.864 39.5903 118.668 39.9082 118.415 40.1778C118.162 40.4474 117.857 40.6632 117.519 40.8124C117.18 40.9616 116.815 41.0411 116.445 41.0461C116.072 41.041 115.704 40.9611 115.362 40.811C115.021 40.6609 114.713 40.4439 114.456 40.1725C114.201 39.9012 114.001 39.5813 113.871 39.2316C113.741 38.882 113.683 38.5098 113.699 38.137C113.681 37.7682 113.739 37.3996 113.866 37.0532C113.995 36.7069 114.191 36.3899 114.444 36.121C114.697 35.8521 115.002 35.6369 115.34 35.4881C115.678 35.3393 116.043 35.26 116.411 35.255C116.784 35.2601 117.151 35.3399 117.493 35.4895C117.834 35.6392 118.141 35.8556 118.398 36.1262C118.653 36.3968 118.853 36.7159 118.983 37.0648C119.114 37.4137 119.173 37.7851 119.158 38.1573ZM107.182 34.5091H104.7V41.7988H107.182C107.673 41.8263 108.164 41.7542 108.626 41.587C109.088 41.4197 109.511 41.1608 109.87 40.8256C110.23 40.4904 110.517 40.0861 110.716 39.6369C110.915 39.1877 111.02 38.7028 111.027 38.2116C111.027 37.5335 110.797 34.6176 107.182 34.5362M107.182 40.9512H105.589V35.3906H107.182C107.555 35.3658 107.93 35.4172 108.283 35.5417C108.636 35.6664 108.959 35.8615 109.234 36.1153C109.508 36.3692 109.729 36.6763 109.881 37.0181C110.033 37.3599 110.114 37.729 110.119 38.1031C110.119 38.4218 110.078 40.8155 107.182 40.924M52.6621 40.2459L50.7973 34.5159H50.1192L48.2341 40.2595L46.1997 34.5362H45.2504L47.8815 41.8463H48.5596L50.4447 36.2722L52.3231 41.8463H53.0012L55.6391 34.5362H54.7033L52.6621 40.2459ZM40.5172 34.4142C40.0357 34.4142 39.559 34.5091 39.1143 34.6935C38.6696 34.878 38.2656 35.1484 37.9255 35.4891C37.5854 35.8299 37.3158 36.2343 37.1322 36.6793C36.9485 37.1244 36.8545 37.6013 36.8554 38.0827C36.8554 38.7609 37.2826 41.8259 40.4968 41.9141C40.9888 41.9116 41.4753 41.8105 41.9274 41.6166C42.3796 41.4226 42.7882 41.1399 43.129 40.7852C43.4699 40.4304 43.7361 40.0107 43.9118 39.5513C44.0875 39.0917 44.1691 38.6016 44.1518 38.1099C44.1609 37.6272 44.0735 37.1476 43.8948 36.6991C43.7161 36.2507 43.4497 35.8424 43.1111 35.4982C42.7726 35.154 42.3689 34.8808 41.9234 34.6947C41.478 34.5086 40.9999 34.4131 40.5172 34.4142ZM43.2296 38.1845C43.2488 38.5541 43.1931 38.9237 43.0658 39.2713C42.9386 39.6189 42.7424 39.9371 42.489 40.2069C42.2357 40.4767 41.9304 40.6926 41.5916 40.8414C41.2527 40.9903 40.8873 41.0691 40.5172 41.0732C40.1435 41.069 39.7746 40.9897 39.4322 40.8401C39.0898 40.6904 38.781 40.4735 38.5241 40.202C38.2673 39.9307 38.0676 39.6104 37.9371 39.2603C37.8065 38.9102 37.7476 38.5374 37.764 38.1641C37.7467 37.7953 37.8038 37.4267 37.9318 37.0804C38.0598 36.7341 38.2562 36.417 38.5093 36.1481C38.7623 35.8792 39.067 35.664 39.4049 35.5152C39.7428 35.3664 40.1072 35.2872 40.4765 35.2821C40.8492 35.2863 41.2173 35.3654 41.5589 35.5147C41.9004 35.6641 42.2085 35.8805 42.4647 36.1513C42.721 36.4221 42.9201 36.7416 43.0503 37.0909C43.1806 37.4402 43.2392 37.812 43.2228 38.1845H43.2296ZM11.9144 20.0518L5.55373 0H0V27.0431H3.77708V5.86566L10.4633 27.0431H13.3791L20.0246 5.88601V27.0431H23.7949V0H18.1734L11.9144 20.0518ZM51.3805 0H47.6102V27.0431H51.3805V0ZM86.1202 11.8195H76.3079V15.2982H86.1202V11.8195ZM88.4936 23.3474H74.9517V3.68215H87.7341V0H71.2017V27.0431H88.48L88.4936 23.3474ZM134.775 11.8195H124.962V15.2982H134.741L134.775 11.8195ZM123.606 3.64146H136.389V0H119.836V27.0431H137.114V23.3203H123.606V3.64146ZM62.5151 11.8195H52.7367V15.2982H62.5151V11.8195ZM67.6416 0H63.8713V27.0431H67.6416V0ZM111.21 14.7557C112.107 14.4004 112.92 13.8623 113.597 13.1757C114.438 12.2959 115.045 11.2185 115.36 10.0428C115.564 9.30952 115.668 8.55248 115.672 7.7915V7.55416C115.708 6.16515 115.381 4.79089 114.723 3.56687C114.31 2.84302 113.757 2.209 113.095 1.70206C112.187 1.04559 111.153 0.58387 110.058 0.345837C109.168 0.139375 108.258 0.0347256 107.345 0.0339056H99.2755V27.0431H103.073V3.64146H107.142C107.624 3.63841 108.107 3.66559 108.586 3.72283C108.998 3.77409 109.403 3.87191 109.793 4.01442C110.411 4.23366 110.947 4.63868 111.326 5.17399C111.808 5.93383 112.046 6.82424 112.004 7.72369C112.034 8.53003 111.844 9.32946 111.454 10.0361C111.222 10.442 110.902 10.7917 110.519 11.06C109.971 11.4302 109.352 11.682 108.701 11.7991C108.135 11.9029 107.561 11.9528 106.986 11.9483H106.111L112.261 27.0431H116.33L111.21 14.7557ZM42.1243 24.412C42.8008 23.6187 43.3084 22.6957 43.6161 21.6996C43.9192 20.7339 44.0747 19.728 44.0773 18.7159C44.0848 17.6866 43.8526 16.6697 43.3991 15.7457C43.0057 14.9396 42.4437 14.2274 41.7513 13.6572C40.7001 12.8206 39.5209 12.1588 38.2591 11.6974C37.0045 11.1956 35.7161 10.7955 34.5701 10.3412C33.5631 10.0129 32.6153 9.52523 31.7627 8.89682C31.4543 8.64667 31.1984 8.33786 31.01 7.98815C30.8284 7.63147 30.7376 7.23552 30.7456 6.83536C30.7408 6.39615 30.8238 5.9604 30.9897 5.55373C31.1423 5.179 31.3736 4.84139 31.6678 4.56369C32.4248 3.92581 33.3908 3.59013 34.3803 3.62112H40.7952V0H34.3057C32.3547 0.00688087 30.4771 0.744838 29.0435 2.06824C28.3836 2.7186 27.8629 3.49648 27.5132 4.3545C27.1634 5.21252 26.992 6.13274 27.0092 7.05914V7.09305C26.992 8.08831 27.2104 9.07347 27.6466 9.96824C28.0396 10.7593 28.6023 11.4538 29.2944 12.0026C30.3496 12.7946 31.5207 13.419 32.7663 13.8538C34.0141 14.3353 35.2957 14.7218 36.4282 15.1761C37.4451 15.5208 38.3866 16.0571 39.2016 16.7561C39.5389 17.0484 39.8134 17.4059 40.0086 17.8072C40.2001 18.2548 40.2949 18.7377 40.2866 19.2245C40.2917 19.7826 40.1928 20.3368 39.995 20.8587C39.8115 21.3385 39.5271 21.7732 39.1609 22.1336C38.7636 22.5204 38.2902 22.8206 37.7708 23.0151C37.1343 23.2244 36.4676 23.3276 35.7975 23.3203H28.6909V27.0431H35.472C36.8315 27.0661 38.1821 26.8194 39.4457 26.3175C40.4863 25.8997 41.4151 25.2449 42.1582 24.4052M95.7494 0H91.979V27.0431H95.7494V0ZM157.512 19.2923C157.527 18.286 157.337 17.2872 156.956 16.3561C156.535 15.352 155.86 14.4753 154.996 13.8131C154.706 13.5916 154.4 13.3922 154.081 13.2164L153.904 13.1282C154.474 12.7851 154.984 12.3523 155.416 11.8466C156.025 11.1037 156.463 10.2353 156.698 9.30369C156.858 8.69488 156.94 8.06831 156.942 7.43888C156.942 7.26258 156.942 7.15408 156.942 7.13373C156.925 5.87622 156.619 4.63949 156.047 3.5194C155.379 2.25044 154.298 1.2479 152.982 0.678112C151.999 0.240519 150.938 0.00969699 149.863 0H140.674V27.0431H148.561C150.256 27.0912 151.941 26.7672 153.497 26.0937C154.329 25.7094 155.078 25.1657 155.701 24.4934C156.425 23.6963 156.951 22.7388 157.234 21.6996C157.424 21.0265 157.522 20.3307 157.525 19.6313C157.533 19.5275 157.533 19.4232 157.525 19.3194M153.253 21.5097C153.02 21.8983 152.703 22.2297 152.324 22.4794C151.767 22.8298 151.144 23.0608 150.493 23.1575C149.905 23.2588 149.307 23.3041 148.71 23.2931H144.438V3.6279H149.374C149.775 3.62941 150.175 3.668 150.568 3.74318C150.894 3.80252 151.211 3.90514 151.51 4.04833C152.003 4.28835 152.411 4.67425 152.677 5.15365C153.042 5.86554 153.217 6.65973 153.185 7.45923C153.2 8.14609 153.027 8.82393 152.684 9.41897C152.452 9.78793 152.153 10.11 151.802 10.3683C151.271 10.741 150.672 11.006 150.039 11.1482C149.467 11.2887 148.879 11.3593 148.289 11.3584H147.706V14.3082H148.289C148.82 14.3067 149.35 14.3612 149.869 14.4709C150.838 14.6416 151.737 15.0864 152.46 15.7525C152.854 16.138 153.165 16.5994 153.375 17.1088C153.631 17.7568 153.764 18.4465 153.769 19.1431V19.2719C153.797 20.045 153.609 20.8106 153.226 21.4826" fill="white"/>
</g>
</svg>
