<svg width="34" height="37" viewBox="0 0 34 37" fill="none" xmlns="http://www.w3.org/2000/svg">
<path d="M2.53125 20.8333V25.7916C2.53125 28.5301 4.58794 30.75 7.125 30.75C9.66206 30.75 11.7188 28.5301 11.7188 25.7916V20.8333M2.53125 20.8333C2.53125 17.5277 1 10.1068 1 7.6339C1 3.34733 5.00456 0.691292 9.60461 1.02875C14.2047 1.36621 13.2463 7.63394 12.9939 10.1068C12.7414 12.5798 11.7188 17.5277 11.7188 20.8333M2.53125 20.8333H11.7188M30.9688 26.0833V31.0416C30.9688 33.78 28.9121 36 26.375 36C23.8379 36 21.7812 33.78 21.7812 31.0416V26.0833M30.9688 26.0833C30.9687 22.7777 32.5 15.3568 32.5 12.8839C32.5 8.59733 28.4954 5.94129 23.8954 6.27875C19.2953 6.61621 20.2537 12.8839 20.5061 15.3568C20.7586 17.8298 21.7812 22.7777 21.7812 26.0833M30.9688 26.0833H21.7812" stroke="white" stroke-width="2" stroke-linecap="round" stroke-linejoin="round"/>
</svg>
