<svg width="42" height="42" viewBox="0 0 42 42" fill="none" xmlns="http://www.w3.org/2000/svg">
<path d="M19.25 38.5C24.0825 38.5 28 34.5825 28 29.75C28 27.5666 27.2003 25.57 25.8779 24.0371C25.5707 23.6812 25.375 23.2363 25.375 22.7662V9.625C25.375 6.24226 22.6327 3.5 19.25 3.5C15.8673 3.5 13.125 6.24225 13.125 9.625V22.7662C13.125 23.2363 12.9293 23.6812 12.6222 24.0371C11.2997 25.57 10.5 27.5666 10.5 29.75C10.5 34.5825 14.4175 38.5 19.25 38.5Z" stroke="white" stroke-width="2" stroke-linecap="round" stroke-linejoin="round"/>
<path d="M21 29.75C21 30.7165 20.2165 31.5 19.25 31.5C18.2835 31.5 17.5 30.7165 17.5 29.75M21 29.75C21 28.7835 20.2165 28 19.25 28M21 29.75H17.5M17.5 29.75C17.5 28.7835 18.2835 28 19.25 28M19.25 28V19.25M31.5 8.75H35M31.5 14H35M31.5 19.25H35" stroke="white" stroke-width="2" stroke-linecap="round" stroke-linejoin="round"/>
</svg>
